<svg width="0" height="0" class="hidden">
  <symbol viewBox="0 0 6 10" fill="none" xmlns="http://www.w3.org/2000/svg" id="arrow2">
    <path d="M1 9l4-4-4-4" ></path>
  </symbol>
  <symbol viewBox="0 0 23 23" fill="none" xmlns="http://www.w3.org/2000/svg" id="cross">
    <path d="M1 22L22 1m0 21L1 1" stroke-linecap="round" stroke-linejoin="round"></path>
  </symbol>
  <symbol viewBox="0 0 25 25" fill="none" xmlns="http://www.w3.org/2000/svg" id="fb">
    <rect x=".5" y=".5" width="24" height="24" rx="3.5" ></rect>
  </symbol>
  <symbol viewBox="0 0 25 25" fill="none" xmlns="http://www.w3.org/2000/svg" id="inst">
    <rect x=".5" y=".5" width="24" height="24" rx="3.5" ></rect>
  </symbol>
  <symbol viewBox="0 0 37 12" fill="none" xmlns="http://www.w3.org/2000/svg" id="menu">
    <path d="M0 1h37M0 11.174h37" ></path>
  </symbol>
  <symbol viewBox="0 0 38 56" fill="none" xmlns="http://www.w3.org/2000/svg" id="mouse">
    <rect x="1.209" y=".35" width="35.582" height="55.3" rx="17.791" fill="#240000" fill-opacity=".3" stroke="#fff" stroke-width=".7"></rect>
    <path d="M19 9.465v9.465"  stroke-width=".7"></path>
  </symbol>
  <symbol viewBox="0 0 25 26" fill="none" xmlns="http://www.w3.org/2000/svg" id="vk">
    <rect x=".5" y="1.167" width="24" height="24" rx="3.5"></rect>
  </symbol>
  <symbol viewBox="0 0 27 27" fill="none" xmlns="http://www.w3.org/2000/svg" id="whatsapp">
    <path d="M3.89 21.273l.475.158.088-.264-.178-.214-.384.32zm-1.5 4.505l-.474-.158-.28.837.862-.191-.108-.488zm5.646-1.255l.219-.45-.157-.076-.17.038.108.488zM25.5 13.278c0 6.627-5.373 12-12 12v1c7.18 0 13-5.82 13-13h-1zm-12-12c6.627 0 12 5.372 12 12h1c0-7.18-5.82-13-13-13v1zm-12 12c0-6.628 5.373-12 12-12v-1c-7.18 0-13 5.82-13 13h1zm2.775 7.675A11.95 11.95 0 0 1 1.5 13.278h-1a12.95 12.95 0 0 0 3.006 8.315l.769-.64zm-1.412 4.983l1.502-4.505-.949-.316-1.501 4.505.948.316zm5.064-1.901L2.28 25.29l.217.976 5.647-1.255-.217-.976zm5.573 1.243a11.95 11.95 0 0 1-5.246-1.204l-.438.899a12.95 12.95 0 0 0 5.684 1.305v-1z"></path>
  </symbol>
  <symbol viewBox="0 0 14 20" fill="none" xmlns="http://www.w3.org/2000/svg" id="arrow">
    <path d="M7 18.987l-5.803-5.913M7 18.987l5.797-5.687M7 18.987L7.18.015" ></path>
  </symbol>
</svg>