<svg width="0" height="0" class="hidden">
  <symbol viewBox="0 0 25 26" fill="none" xmlns="http://www.w3.org/2000/svg" id="vk">
    <rect x=".5" y="1.167" width="24" height="24" rx="3.5" stroke="#fff"></rect>
    <path d="M18.348 15.215c1.207 1.17 1.458 1.741 1.499 1.811.498.867-.553.935-.553.935l-2.012.03s-.435.09-1.003-.32c-.754-.54-1.784-1.945-2.336-1.762-.562.185-.383 1.659-.383 1.659s.005.18-.122.325c-.14.153-.412.094-.412.094h-.58s-2.148.01-3.9-1.898C6.637 14.01 5.04 10.123 5.04 10.123s-.097-.247.007-.378c.12-.147.444-.145.444-.145h2.153s.201.028.346.14c.122.092.188.265.188.265s.26.724.722 1.559c.899 1.626 1.318 1.982 1.623 1.806.444-.255.31-2.298.31-2.298s.01-.743-.224-1.074c-.18-.257-.518-.332-.667-.354-.123-.014.077-.309.335-.44.387-.197 1.073-.211 1.88-.202.63.007.868-.002.868-.002.742.187.491.914.491 2.648 0 .558-.097 1.34.288 1.598.165.115.758.132 1.765-1.661.48-.85.858-1.65.858-1.65s.082-.18.202-.255c.127-.08.294-.08.294-.08l2.266.012s.682-.09.79.234c.116.337-.278.928-1.202 2.22-1.521 2.12-1.69 1.923-.43 3.149z" fill="#fff"></path>
  </symbol>
  <symbol viewBox="0 0 27 27" fill="none" xmlns="http://www.w3.org/2000/svg" id="whatsapp">
    <path fill-rule="evenodd" clip-rule="evenodd" d="M11.732 7.122c-.119-.572-.35-.627-.558-.675-.17-.04-.367-.078-.563-.115-.194-.037-.528-.02-.858.247-.331.264-1.238.886-1.536 2.447-.298 1.559.47 3.269.574 3.508.108.237 1.365 3.902 4.11 5.744 2.281 1.53 2.827 1.417 3.375 1.468.55.048 1.887-.435 2.273-1.13.385-.692.506-1.326.46-1.473-.048-.147-.23-.263-.494-.479-.262-.215-1.561-1.256-1.812-1.415-.249-.155-.435-.245-.691.033-.257.279-.957.886-1.17 1.065-.212.178-.386.172-.652-.04-.262-.216-1.145-.731-2.062-2.026-.713-1.008-1.105-2.157-1.217-2.508-.111-.349.074-.492.252-.623.16-.115.367-.314.55-.471.18-.158.254-.279.393-.472.137-.192.124-.387.082-.56-.042-.173-.314-1.848-.456-2.525z" fill="#fff"></path>
    <path d="M3.89 21.273l.475.158.088-.264-.178-.214-.384.32zm-1.5 4.505l-.474-.158-.28.837.862-.191-.108-.488zm5.646-1.255l.219-.45-.157-.076-.17.038.108.488zM25.5 13.278c0 6.627-5.373 12-12 12v1c7.18 0 13-5.82 13-13h-1zm-12-12c6.627 0 12 5.372 12 12h1c0-7.18-5.82-13-13-13v1zm-12 12c0-6.628 5.373-12 12-12v-1c-7.18 0-13 5.82-13 13h1zm2.775 7.675A11.95 11.95 0 0 1 1.5 13.278h-1a12.95 12.95 0 0 0 3.006 8.315l.769-.64zm-1.412 4.983l1.502-4.505-.949-.316-1.501 4.505.948.316zm5.064-1.901L2.28 25.29l.217.976 5.647-1.255-.217-.976zm5.573 1.243a11.95 11.95 0 0 1-5.246-1.204l-.438.899a12.95 12.95 0 0 0 5.684 1.305v-1z" fill="#fff"></path>
  </symbol>
  <symbol viewBox="0 0 25 25" fill="none" xmlns="http://www.w3.org/2000/svg" id="facebook">
    <rect x=".5" y=".5" width="24" height="24" rx="3.5" stroke="#fff"></rect>
    <path d="M15.63 12.2h-1.963V20H10.75v-7.8H9V9.8h1.75V8.354C10.752 6.249 11.602 5 14.013 5H16v2.4h-1.333c-.939 0-1 .36-1 1.034V9.8H16l-.37 2.4z" fill="#fff"></path>
  </symbol>
  <symbol viewBox="0 0 25 25" fill="none" xmlns="http://www.w3.org/2000/svg" id="instagram">
    <rect x=".5" y=".5" width="24" height="24" rx="3.5" stroke="#fff"></rect>
    <circle cx="12.5" cy="12.5" r="5" stroke="#fff"></circle>
    <circle cx="19.5" cy="5.5" r="1.5" fill="#fff"></circle>
  </symbol>
</svg>