<svg width="134" height="23" viewBox="0 0 134 23" fill="none" xmlns="http://www.w3.org/2000/svg">
<path d="M70.7534 9C70.7534 11.3296 69.6198 13.4742 68.4418 15.0666C67.857 15.8573 67.2713 16.498 66.8322 16.9406C66.6794 17.0947 66.5446 17.2245 66.4342 17.3278C66.3239 17.2245 66.1891 17.0947 66.0362 16.9406C65.5971 16.498 65.0115 15.8573 64.4266 15.0666C63.2486 13.4742 62.115 11.3296 62.115 9C62.115 6.67044 63.2486 4.52577 64.4266 2.93339C65.0115 2.14273 65.5971 1.502 66.0362 1.0594C66.1891 0.905279 66.3239 0.775524 66.4342 0.672181C66.5446 0.775524 66.6794 0.905279 66.8322 1.0594C67.2713 1.502 67.857 2.14273 68.4418 2.93339C69.6198 4.52577 70.7534 6.67044 70.7534 9Z" stroke="white"/>
<path d="M64.5572 8.77945C66.0181 10.4467 66.5897 12.8775 66.7816 14.9616C66.8767 15.9945 66.8765 16.9202 66.8524 17.5874C66.8431 17.8431 66.8304 18.0602 66.8183 18.23C66.6695 18.2438 66.4793 18.2584 66.2552 18.2689C65.6706 18.2964 64.8595 18.2967 63.9544 18.1882C62.1283 17.9692 59.9984 17.3167 58.5375 15.6495C57.0766 13.9822 56.5049 11.5515 56.3131 9.46735C56.218 8.43447 56.2182 7.50877 56.2423 6.84152C56.2516 6.58577 56.2643 6.36869 56.2764 6.1989C56.4252 6.18509 56.6154 6.17057 56.8395 6.16002C57.4241 6.13249 58.2352 6.13224 59.1403 6.24077C60.9664 6.45975 63.0963 7.11217 64.5572 8.77945Z" stroke="white"/>
<path d="M69.6491 8.77945C68.1882 10.4467 67.6166 12.8775 67.4247 14.9616C67.3296 15.9945 67.3298 16.9202 67.3539 17.5874C67.3632 17.8431 67.3759 18.0602 67.388 18.23C67.5368 18.2438 67.727 18.2584 67.9511 18.2689C68.5357 18.2964 69.3468 18.2967 70.2519 18.1882C72.078 17.9692 74.2079 17.3167 75.6688 15.6495C77.1297 13.9822 77.7014 11.5515 77.8932 9.46735C77.9883 8.43447 77.9881 7.50877 77.964 6.84152C77.9547 6.58577 77.942 6.36869 77.9299 6.1989C77.7811 6.18509 77.5909 6.17057 77.3668 6.16002C76.7822 6.13249 75.9711 6.13224 75.066 6.24077C73.2399 6.45975 71.11 7.11217 69.6491 8.77945Z" stroke="white"/>
<path d="M45 12H0" stroke="white"/>
<path d="M134 12L88 12" stroke="white"/>
</svg>
